<?xml version="1.0" encoding="utf-8"?>
<!-- Generator: Adobe Illustrator 16.0.0, SVG Export Plug-In . SVG Version: 6.00 Build 0)  -->
<!DOCTYPE svg PUBLIC "-//W3C//DTD SVG 1.1//EN" "http://www.w3.org/Graphics/SVG/1.1/DTD/svg11.dtd">
<svg version="1.1" id="圖層_1" xmlns="http://www.w3.org/2000/svg" xmlns:xlink="http://www.w3.org/1999/xlink" x="0px" y="0px"
	 width="1024px" height="1024px" viewBox="0 0 1024 1024" enable-background="new 0 0 1024 1024" xml:space="preserve">
<g>
	<g>
		<g>
			<path fill="#595757" d="M102.568,420.673C66.356,420.673,37,450.029,37,486.241c0,36.212,29.356,65.568,65.568,65.568
				c36.212,0,65.568-29.355,65.568-65.568C168.137,450.029,138.781,420.673,102.568,420.673z M102.568,529.953
				c-24.142,0-43.712-19.57-43.712-43.712s19.571-43.712,43.712-43.712s43.712,19.57,43.712,43.712
				C146.281,510.383,126.71,529.953,102.568,529.953z"/>
		</g>
		<rect x="146.291" y="486.241" fill="#595757" width="21.856" height="109.281"/>
		<g>
			<path fill="#595757" d="M168.137,486.241c0-24.142,19.571-43.712,43.712-43.712v-21.855c-36.212,0-65.568,29.355-65.568,65.568
				c0,36.212,29.355,65.568,65.568,65.568v-21.855C187.708,529.953,168.137,510.383,168.137,486.241z"/>
		</g>
	</g>
	<g>
		<g>
			<path fill="#595757" d="M296.14,555.061v24.791c0,5.2-1.583,9.021-4.75,11.467c-3.166,2.446-6.963,3.668-11.391,3.668
				s-8.25-1.222-11.468-3.668c-3.218-2.443-4.827-6.267-4.827-11.467v-24.867c0-5.302,1.454-9.316,4.363-12.047
				c2.908-2.729,6.912-4.094,12.009-4.094c5.097,0,9.047,1.442,11.854,4.324C294.736,546.053,296.14,550.017,296.14,555.061z
				 M289.112,578.77v-22.163c0-3.397-0.708-5.973-2.124-7.723c-1.417-1.75-3.771-2.627-7.065-2.627
				c-3.295,0-5.651,0.863-7.066,2.587c-1.417,1.727-2.124,4.288-2.124,7.686v22.317c0,2.884,0.81,5.124,2.433,6.719
				c1.621,1.597,3.848,2.394,6.68,2.394c2.831,0,5.083-0.812,6.757-2.432C288.275,583.905,289.112,581.654,289.112,578.77z"/>
			<path fill="#595757" d="M314.287,608.655l-7.028,1.699v-54.906h6.719l0.153,1.698c1.802-1.545,4.325-2.316,7.569-2.316
				c4.788,0,8.429,1.39,10.927,4.171c2.497,2.779,3.747,6.385,3.747,10.811v10.735c0,4.686-1.313,8.275-3.939,10.771
				c-2.626,2.497-6.102,3.745-10.426,3.745c-3.14,0-5.714-0.722-7.722-2.161V608.655z M329.346,579.541v-10.039
				c0-2.625-0.645-4.596-1.931-5.908c-1.288-1.312-3.089-1.969-5.406-1.969c-2.316,0-4.17,0.645-5.561,1.931
				c-1.39,1.288-2.112,3.142-2.162,5.561v11.12c0,5.305,2.574,7.954,7.722,7.954C326.9,588.19,329.346,585.309,329.346,579.541z"/>
			<path fill="#595757" d="M355.061,588.575c2.881,0,6.255-1.027,10.116-3.088l2.625,5.945c-3.964,2.422-8.108,3.63-12.432,3.63
				c-8.959,0-13.438-3.757-13.438-11.273v-15.832c0-4.17,1.301-7.412,3.9-9.729c2.6-2.318,6.036-3.477,10.309-3.477
				s7.607,1.146,10.002,3.437c2.393,2.292,3.59,5.472,3.59,9.538v11.12l-20.696,1.158v3.013c0,2.059,0.604,3.502,1.815,4.324
				C352.06,588.164,353.465,588.575,355.061,588.575z M362.628,572.668v-5.02c0-2.109-0.669-3.668-2.008-4.673
				c-1.339-1.003-3-1.506-4.98-1.506c-1.983,0-3.58,0.605-4.788,1.813c-1.211,1.211-1.815,2.793-1.815,4.75v5.405L362.628,572.668z"
				/>
			<path fill="#595757" d="M384.637,556.684c2.265-1.235,4.761-1.854,7.492-1.854c2.728,0,5.224,0.464,7.49,1.39
				c4.375,2.01,6.564,5.742,6.564,11.199v26.72h-7.028v-25.099c0-2.472-0.747-4.351-2.24-5.638
				c-1.493-1.286-3.347-1.932-5.559-1.932c-2.214,0-4.454,0.593-6.719,1.775v30.892h-6.95v-38.689h6.409L384.637,556.684z"/>
			<path fill="#595757" d="M464.642,585.873l1.158,6.487c-4.377,1.699-8.546,2.549-12.51,2.549c-0.824,0-2.073-0.077-3.745-0.231
				c-1.673-0.155-3.451-0.734-5.329-1.737c-1.88-1.004-3.397-2.6-4.557-4.788c-1.159-2.188-1.737-4.902-1.737-8.146v-24.789
				c0-3.911,0.552-6.872,1.661-8.88c1.104-2.009,2.792-3.707,5.057-5.099c2.318-1.287,5.071-1.931,8.265-1.931
				c3.963,0,7.619,0.85,10.965,2.549l-2.008,6.022c-2.471-0.927-5.033-1.391-7.685-1.391c-2.653,0-4.853,0.656-6.603,1.97
				c-1.751,1.312-2.627,3.334-2.627,6.062v25.331c0,2.315,0.567,4.119,1.701,5.405c1.439,1.646,3.756,2.471,6.948,2.471
				C456.791,587.728,460.472,587.109,464.642,585.873z"/>
			<path fill="#595757" d="M497.771,594.138h-6.642l-0.231-1.699c-2.06,1.699-4.531,2.548-7.414,2.548
				c-9.681,0-14.519-4.711-14.519-14.132v-25.406h7.028v24.788c0,5.305,2.496,7.954,7.49,7.954c4.838,0,7.258-2.728,7.258-8.186
				v-24.558h7.027v38.69H497.771z"/>
			<path fill="#595757" d="M513.756,594.138h-7.027v-54.06h7.027V594.138z"/>
			<path fill="#595757" d="M535.918,589.58l-2.085,5.562c-7.002-0.619-10.502-4.352-10.502-11.198v-43.864h7.104v15.369h8.03
				l-1.854,6.642h-6.179v21.854C530.436,587.188,532.263,589.067,535.918,589.58z"/>
			<path fill="#595757" d="M571.827,594.138h-6.642l-0.231-1.699c-2.06,1.699-4.53,2.548-7.413,2.548
				c-9.681,0-14.52-4.711-14.52-14.132v-25.406h7.028v24.788c0,5.305,2.495,7.954,7.49,7.954c4.838,0,7.258-2.728,7.258-8.186
				v-24.558h7.028L571.827,594.138L571.827,594.138z"/>
			<path fill="#595757" d="M586.422,556.606c2.316-1.185,4.968-1.776,7.954-1.776c0.927,0,2.883,0.283,5.87,0.851l-1.699,6.718
				c-1.391-0.669-2.755-1.003-4.094-1.003s-2.6,0.206-3.784,0.617c-2.78,1.03-4.17,2.832-4.17,5.406v26.72h-7.026v-38.689h6.642
				L586.422,556.606z"/>
			<path fill="#595757" d="M615.072,588.575c2.883,0,6.256-1.027,10.115-3.088l2.627,5.945c-3.966,2.422-8.109,3.63-12.435,3.63
				c-8.958,0-13.437-3.757-13.437-11.273v-15.832c0-4.17,1.3-7.412,3.898-9.729c2.6-2.318,6.036-3.477,10.312-3.477
				c4.271,0,7.604,1.146,10,3.437c2.394,2.292,3.59,5.472,3.59,9.538v11.12l-20.695,1.158v3.013c0,2.059,0.604,3.502,1.814,4.324
				C612.073,588.164,613.477,588.575,615.072,588.575z M622.64,572.668v-5.02c0-2.109-0.669-3.668-2.008-4.673
				c-1.339-1.003-2.999-1.506-4.979-1.506c-1.981,0-3.578,0.605-4.788,1.813c-1.211,1.211-1.814,2.793-1.814,4.75v5.405
				L622.64,572.668z"/>
			<path fill="#595757" d="M667.277,594.138h-7.028v-54.06h25.793v6.951h-18.765v15.214h11.66l-2.473,6.796h-9.188V594.138z"/>
			<path fill="#595757" d="M714.154,569.734v10.193c0,4.323-1.187,7.902-3.555,10.733c-2.367,2.832-5.945,4.248-10.733,4.248
				s-8.405-1.429-10.851-4.286c-2.445-2.856-3.669-6.422-3.669-10.695v-10.193c0-4.891,1.248-8.636,3.745-11.237
				c2.498-2.598,6.036-3.897,10.62-3.897c4.581,0,8.133,1.351,10.656,4.054C712.893,561.356,714.154,565.05,714.154,569.734z
				 M707.203,580.699v-10.966c0-5.457-2.446-8.187-7.337-8.187c-4.994,0-7.49,2.729-7.49,8.187v10.966
				c0,2.421,0.694,4.262,2.085,5.521c1.391,1.262,3.191,1.893,5.405,1.893s3.99-0.644,5.329-1.931S707.203,583.068,707.203,580.699z
				"/>
			<path fill="#595757" d="M748.595,594.138h-6.642l-0.231-1.699c-2.06,1.699-4.53,2.548-7.413,2.548
				c-9.681,0-14.519-4.711-14.519-14.132v-25.406h7.026v24.788c0,5.305,2.496,7.954,7.491,7.954c4.839,0,7.259-2.728,7.259-8.186
				v-24.558h7.027L748.595,594.138L748.595,594.138z"/>
			<path fill="#595757" d="M763.421,556.684c2.267-1.235,4.763-1.854,7.49-1.854c2.729,0,5.226,0.464,7.492,1.39
				c4.375,2.01,6.562,5.742,6.562,11.199v26.72h-7.026v-25.099c0-2.472-0.747-4.351-2.24-5.638c-1.494-1.286-3.348-1.932-5.56-1.932
				c-2.216,0-4.454,0.593-6.72,1.775v30.892h-6.951v-38.689h6.411L763.421,556.684z"/>
			<path fill="#595757" d="M802.729,556.298c2.522-1.03,5.176-1.546,7.954-1.546c2.78,0,5.122,0.516,7.027,1.546v-16.22h6.951v54.06
				c-4.431,0.617-8.522,0.926-12.28,0.926s-7.155-0.771-10.193-2.315c-4.016-2.06-6.022-5.639-6.022-10.734v-14.595
				C796.164,562.012,798.354,558.305,802.729,556.298z M817.71,563.479c-2.266-1.184-4.467-1.775-6.603-1.775
				c-2.138,0-4.004,0.593-5.6,1.775c-1.597,1.186-2.394,3.193-2.394,6.023v12.896c0,2.626,1.438,4.429,4.323,5.406
				c1.545,0.515,3.18,0.771,4.903,0.771s3.515-0.205,5.367-0.616v-24.48H817.71z"/>
			<path fill="#595757" d="M841.494,563.17c4.479,0,8.342,1.029,11.584,3.09c0-4.324-3.193-6.487-9.576-6.487l0.541-4.942
				c4.17,0,7.26,0.49,9.268,1.469c1.082,0.564,2.033,1.132,2.857,1.697c0.822,0.566,1.467,1.312,1.932,2.24
				c0.461,0.926,0.85,1.737,1.157,2.433c0.31,0.694,0.515,1.635,0.617,2.817c0.155,1.805,0.232,3.683,0.232,5.639v23.014
				c-5.356,0.514-9.628,0.771-12.819,0.771c-11.275,0-16.913-4.606-16.913-13.823v-6.41c0-5.097,1.776-8.52,5.329-10.271
				C837.452,563.582,839.383,563.17,841.494,563.17z M853.078,588.036v-14.75c-2.729-1.595-5.844-2.6-9.344-3.012
				c-0.36-0.052-0.965-0.077-1.814-0.077c-0.849,0-1.814,0.374-2.896,1.12c-1.081,0.746-1.621,2.122-1.621,4.13v5.099
				c0,5.303,3.345,7.953,10.037,7.953C849.14,588.5,851.018,588.346,853.078,588.036z"/>
			<path fill="#595757" d="M879.179,589.58l-2.084,5.562c-7.003-0.619-10.503-4.352-10.503-11.198v-43.864h7.104v15.369h8.03
				l-1.853,6.642h-6.179v21.854C873.696,587.188,875.523,589.067,879.179,589.58z"/>
			<path fill="#595757" d="M897.249,543.13c0,1.005-0.386,1.904-1.158,2.702c-0.771,0.8-1.661,1.197-2.664,1.197
				c-1.005,0-1.905-0.397-2.703-1.197c-0.799-0.798-1.196-1.697-1.196-2.702c0-1.003,0.397-1.893,1.196-2.664
				c0.798-0.772,1.698-1.158,2.703-1.158c1.003,0,1.894,0.386,2.664,1.158C896.863,541.238,897.249,542.127,897.249,543.13z
				 M896.786,594.138h-7.027v-38.689h7.027V594.138z"/>
			<path fill="#595757" d="M938.256,569.734v10.193c0,4.323-1.185,7.902-3.553,10.733c-2.368,2.832-5.946,4.248-10.734,4.248
				s-8.404-1.429-10.85-4.286c-2.446-2.856-3.669-6.422-3.669-10.695v-10.193c0-4.891,1.248-8.636,3.745-11.237
				c2.497-2.598,6.035-3.897,10.619-3.897c4.582,0,8.134,1.351,10.655,4.054C936.994,561.356,938.256,565.05,938.256,569.734z
				 M931.305,580.699v-10.966c0-5.457-2.444-8.187-7.336-8.187c-4.995,0-7.49,2.729-7.49,8.187v10.966
				c0,2.421,0.694,4.262,2.084,5.521c1.392,1.262,3.192,1.893,5.406,1.893s3.989-0.644,5.328-1.931
				C930.637,584.896,931.305,583.068,931.305,580.699z"/>
			<path fill="#595757" d="M953.005,556.684c2.267-1.235,4.761-1.854,7.49-1.854c2.729,0,5.225,0.464,7.491,1.39
				c4.376,2.01,6.563,5.742,6.563,11.199v26.72h-7.028v-25.099c0-2.472-0.746-4.351-2.238-5.638
				c-1.494-1.286-3.348-1.932-5.561-1.932c-2.215,0-4.453,0.593-6.719,1.775v30.892h-6.951v-38.689h6.41L953.005,556.684z"/>
		</g>
	</g>
	<g>
		<path fill="#595757" d="M274.342,459.751v56.132h-9.653v-92.119h39.345v35.986L274.342,459.751L274.342,459.751z M274.342,431.004
			v6.925H294.8v-6.925H274.342z M294.801,452.512v-7.869h-20.458v7.869H294.801z M322.395,491.227v22.977h-8.708v-22.977h-12.591
			c-0.839,7.029-4.196,18.045-13.849,24.446c-1.469-1.68-4.407-4.302-6.506-5.771c7.974-4.826,11.017-12.905,11.855-18.675h-11.96
			v-8.079h12.17v-9.862H282.42v-7.87h50.99v7.87h-11.016v9.862h13.01v8.079H322.395z M313.687,483.148v-9.862h-12.381v9.862H313.687
			z M351.562,503.922c0,5.35-1.154,8.289-4.617,9.967c-3.357,1.573-8.604,1.783-16.367,1.783c-0.419-2.729-1.888-7.239-3.252-9.969
			c5.246,0.315,10.702,0.21,12.381,0.21c1.677,0,2.097-0.523,2.097-2.098v-43.75h-30.11v-36.303h39.869L351.562,503.922
			L351.562,503.922z M320.925,431.004v6.925h20.878v-6.925H320.925z M341.804,452.722v-8.079h-20.878v8.079H341.804z"/>
		<path fill="#595757" d="M453.639,447.58c-2.623,16.157-6.608,29.377-12.694,40.394c5.456,8.289,12.485,14.898,21.298,18.991
			c-2.098,1.889-5.245,5.665-6.609,8.394c-8.498-4.407-15.109-10.702-20.459-18.466c-6.189,7.764-13.955,14.059-23.711,19.095
			c-0.945-2.202-3.673-6.608-5.561-8.499c10.282-4.721,18.151-11.226,23.921-19.619c-3.882-7.554-6.819-16.263-9.232-25.705
			c-1.994,4.092-4.302,7.765-6.715,11.017c-1.365-1.784-4.407-5.036-6.715-7.029c-0.63,30.111-1.365,41.128-3.882,44.59
			c-1.784,2.414-3.567,3.357-6.505,3.777c-2.519,0.42-6.924,0.42-11.226,0.21c-0.316-2.623-1.259-6.4-2.519-8.918
			c3.775,0.42,7.24,0.42,8.917,0.42c1.47,0,2.413-0.314,3.043-1.469c1.678-2.204,2.412-11.856,2.937-38.715h-11.961
			c0,17.102-2.098,34.833-15.527,49.417c-1.679-2.099-4.827-4.722-7.24-6.399c12.066-13.221,13.64-29.062,13.64-43.227v-20.983
			h-11.436v-9.128h45.954v9.128h-25.391v12.275h21.403c0,0,0,2.938-0.104,4.196l-0.105,3.147
			c8.183-10.702,13.535-27.593,16.472-45.114l9.968,1.574c-1.153,5.98-2.519,11.96-3.986,17.626h31.58v9.023h-7.554V447.58z
			 M386.805,435.619c-0.942-3.776-3.146-9.861-5.036-14.268l8.603-2.309c2.099,4.406,4.407,10.178,5.352,13.954L386.805,435.619z
			 M426.465,448.315c2.1,10.912,4.932,20.879,8.917,29.692c4.093-8.708,6.715-18.677,8.5-30.427h-17.103L426.465,448.315z"/>
		<path fill="#595757" d="M548.896,446.847c-5.562,15.842-13.326,28.643-23.188,39.134c11.228,9.128,24.865,15.948,41.022,19.935
			c-2.202,2.1-5.036,6.19-6.609,9.023c-16.684-4.511-30.636-11.961-41.968-21.823c-11.646,9.862-25.915,17.207-42.911,22.453
			c-1.154-2.519-4.094-7.03-6.086-9.338c16.893-4.511,30.637-11.017,41.759-20.145c-10.178-10.807-17.942-23.922-23.817-39.239
			h-16.156v-9.443h45.43c-1.259-4.301-4.196-10.911-7.029-15.842l10.282-3.043c3.042,4.932,6.399,11.646,7.764,15.948l-9.337,2.938
			h47.107v9.443L548.896,446.847L548.896,446.847z M497.275,446.847c5.035,12.38,12.065,23.187,20.983,32.419
			c8.499-8.813,15.003-19.516,19.726-32.419H497.275z"/>
		<path fill="#595757" d="M610.788,422.82c-2.832,6.715-6.399,13.431-10.28,19.83v72.918h-9.232v-59.489
			c-3.987,5.246-8.185,9.968-12.486,13.954c-0.838-2.308-3.566-7.554-5.352-9.861c11.123-9.549,21.93-24.762,28.435-40.289
			L610.788,422.82z M653.701,503.817c5.664,0,6.609-4.407,7.447-22.032c2.31,1.783,6.296,3.671,8.813,4.302
			c-1.364,19.618-3.776,26.544-15.633,26.544h-18.78c-11.541,0-14.794-3.463-14.794-16.053v-75.437h9.339v27.698h36.932v9.338
			h-36.932v38.609c0,5.875,1.048,7.029,6.295,7.029L653.701,503.817L653.701,503.817z"/>
		<path fill="#595757" d="M754.412,477.063c5.877,6.085,14.166,11.438,22.244,14.269c-2.101,1.784-4.932,5.247-6.4,7.555
			c-10.072-4.407-20.039-12.695-26.439-21.823H712.55c-2.517,3.672-5.77,7.344-9.23,10.597h19.198v-7.869h9.862v7.869h20.774v7.765
			H732.38v9.337h35.253v8.079h-79.004v-8.079h33.889v-9.337h-20.039V488.5c-5.245,4.721-11.33,8.707-17.312,11.541
			c-1.364-2.309-4.197-5.771-6.295-7.449c8.289-3.147,16.682-9.023,22.662-15.528h-21.613v-8.079h20.355v-32.419h-15.214v-7.974
			h15.214v-9.128h9.757v9.128h35.673v-9.022h9.966v9.022h15.004v7.974h-15.004v32.419h19.725v8.079L754.412,477.063L754.412,477.063
			z M710.033,436.564v5.875h35.673v-5.875H710.033z M710.033,455.554h35.673v-5.98h-35.673V455.554z M710.033,468.984h35.673v-6.295
			h-35.673V468.984z"/>
		<path fill="#595757" d="M837.5,459.121v12.695h35.146v8.813H837.5v23.396h40.184v8.918h-90.02v-8.918h39.449V480.63H792.49v-8.813
			h34.623v-12.695h-21.928v-5.455c-4.933,2.622-9.969,4.826-15.215,6.715c-1.363-2.833-4.093-6.61-6.504-9.023
			c19.514-5.979,38.504-17.521,48.473-32.945l9.127,4.093c-0.943,1.363-1.783,2.728-2.728,3.986
			c10.282,10.282,27.907,20.249,43.646,24.971c-2.202,1.993-5.246,5.875-6.715,8.499c-5.142-1.889-10.388-4.302-15.633-7.239v6.399
			H837.5L837.5,459.121z M808.438,481.679c3.986,5.561,8.185,13.22,9.861,18.15l-8.497,3.673
			c-1.469-4.932-5.562-12.801-9.339-18.677L808.438,481.679z M854.917,450.099c-8.185-4.931-15.948-10.702-22.243-16.997
			c-6.086,6.61-13.221,12.275-21.09,16.997H854.917z M845.475,500.459c3.565-5.036,7.974-13.011,10.178-18.78l9.441,3.463
			c-3.986,6.609-8.604,13.744-12.171,18.465L845.475,500.459z"/>
		<path fill="#595757" d="M944.718,421.875c-0.524,0.63-0.944,1.363-1.573,1.993c9.757,9.023,27.487,16.997,43.855,20.459
			c-1.994,1.68-4.722,5.142-6.191,7.45c-2.517-0.734-5.244-1.574-7.867-2.519v27.174h-70.926v-26.439
			c-2.621,0.944-5.141,1.784-7.764,2.519c-0.84-1.784-3.566-5.771-5.246-7.449c18.99-4.827,37.562-13.955,47.108-26.23
			L944.718,421.875z M972.521,449.155c-5.666-1.994-11.438-4.407-16.786-7.449v3.042h-36.303v-2.518
			c-4.827,2.728-9.968,4.931-15.214,6.925H972.521L972.521,449.155z M907.996,480.63h59.803v34.519h-9.966v-2.833h-40.187v3.253
			h-9.65V480.63z M922.266,456.184c2.309,3.566,4.615,8.394,5.351,11.541l-6.925,2.308h12.381v-14.479h-22.768v14.479h10.071
			c-0.734-3.252-2.729-8.079-4.931-11.75L922.266,456.184z M917.646,487.345v5.771h40.187v-5.771H917.646z M957.833,505.704v-5.875
			h-40.187v5.875H957.833z M949.544,438.032c-4.302-2.624-8.185-5.666-11.541-8.812c-3.358,3.146-7.346,6.188-11.437,8.812H949.544z
			 M964.337,455.554h-23.292v14.479h11.751l-6.505-1.994c1.889-3.356,4.093-8.708,5.247-12.274l8.183,2.309
			c-2.308,4.512-4.615,8.918-6.505,11.96h11.121V455.554z"/>
	</g>
</g>
</svg>
